<svg xmlns="http://www.w3.org/2000/svg" viewBox="0 0 228.89 245.53"><defs><style>.cls-1{fill:#856bdb;}.cls-2{fill:#6e59cb;}.cls-3{fill:#d2caf0;}.cls-4{fill:#68e868;}.cls-5{fill:#59c559;}.cls-6{fill:#c3f4c3;}.cls-7{fill:#6e58cb;}.cls-8{fill:#856bdc;}.cls-9{fill:#e1d7ff;}</style></defs><g id="레이어_2" data-name="레이어 2"><g id="레이어_1-2" data-name="레이어 1"><path class="cls-1" d="M22.22,224.62a67.82,67.82,0,0,1-18.41-30.2,91.87,91.87,0,0,1-3-38c1.63-12.5,7-23.65,14.76-33.58A69.51,69.51,0,0,1,47.61,99.39a19.84,19.84,0,0,1,11.09-.47,12.1,12.1,0,0,1,6.59,4c11,12.68,17.39,27.64,21.68,43.65a2.34,2.34,0,0,1-1,2.75,29.16,29.16,0,0,1-8.22,3.86,3.25,3.25,0,0,1-3.86-1.41c-3.72-5.07-7.39-10.17-11.44-15-7.41-8.85-20.29-6.17-25.15,3.91-2.58,5.36-2,10.7-.54,16.12a144.45,144.45,0,0,0,29.86,56.5c5.34,6.24,16.14,9,24.32,3.7,3.55-2.31,4.84-5.67,5.53-9.54,1.42-8-.54-15.55-3.42-22.94-.82-2.1-1.42-4.3-2.89-6.1a2.8,2.8,0,0,0-4.08-.77,44.34,44.34,0,0,0-7.45,5.59,2.75,2.75,0,0,1-4.11.18c-1.34-1-2.79-1.93-4.18-2.91s-1.79-2.43-.74-3.85c4.21-5.68,8.5-11.29,14-15.88s8.94-2.85,12.77.94,6.85,8.46,9.9,13a110.42,110.42,0,0,1,10.11,17.38c-.6.4-.64,1.1-.78,1.68-2.36,10.33-8.36,18.41-16.39,24.85a50.07,50.07,0,0,1-18,8.84,78,78,0,0,1-21.31,3.33,96.14,96.14,0,0,1-13.28-.56,95.76,95.76,0,0,1-21-5.36C24.59,224.46,23.39,223.55,22.22,224.62Zm-7.82-83c.29,1.47.57,2.82,2.21,3.14s2.37-.58,3-1.81c.37-.76.78-1.51,1.13-2.28a49.27,49.27,0,0,1,9.54-14.38,60.74,60.74,0,0,1,7.4-6.59,2.79,2.79,0,0,0,1-3.74c-.66-1.36-1.94-1.41-3.29-1a9.58,9.58,0,0,0-2.64,1.31c-7.22,5.08-12.19,12-16.39,19.65A23.11,23.11,0,0,0,14.4,141.59Z"/><path class="cls-1" d="M183,81.74c-.73-1.75-3.13-8.42-9.24-11.67s-11-3.9-18.79-1.14c-3.75,1.34-7.79,3.11-6.48,5.75,2.36,4.73,6.7,9.81,10.28,13.63,4.86,5.19,9.87,9.11,15.14,13.89,2.62,2.38,5.28,4.79,8.07,7,1.26,1,3.69,3.58,5.44,3,.61-.2.85-.92,1-1.56,1-5.11.16-10.51-1.12-15.63s-2.49-8-4.28-13.26m14.19-.34c3.75,18,5.16,29.48-6.84,43-3.33,5.45-5.14,9.2-11.51,10.79-.92.24-5.35,1.85-6.16,2.63-12.93-11.29-22-20.51-36-35.6-2.9-3.12-8.18-9.48-10.79-12.84-2.94-3.75-6.37-7.66-8.4-11.91-1.47-3.08-1.83-5.87.83-8.36C129.47,58.66,142,48.41,157.39,45.31c7.32-1.48,15.94-1.14,22.42,2.93a26.33,26.33,0,0,1,11.57,15.38S196.26,76.82,197.21,81.4ZM132.94,71.21a2.49,2.49,0,0,0-3.65-2.1,11.75,11.75,0,0,0-3.44,2.8c-2.16,2.34-2.15,5-.43,7.57a2.28,2.28,0,0,0,3.14.92,2.23,2.23,0,0,0,1.26-3c-.47-1.4.06-2.23,1.13-3.21S132.88,73,132.94,71.21Z"/><path class="cls-2" d="M22.22,224.62c1.17-1.07,2.37-.16,3.34.21a95.76,95.76,0,0,0,21,5.36,96.14,96.14,0,0,0,13.28.56,78,78,0,0,0,21.31-3.33,50.07,50.07,0,0,0,18-8.84c8-6.44,14-14.52,16.39-24.85.14-.58.18-1.28.78-1.68a121.49,121.49,0,0,1,9.5,23.5c1.46,5.38-1.27,10-5.6,13-15.31,10.68-31.84,18-51.08,16.81A71,71,0,0,1,22.22,224.62Z"/><path class="cls-2" d="M170.35,135.71c.81-.84,1.88-.37,2.82-.54,6.43-1.18,10.3-5.83,13.15-10.9,8.56-11,9.22-25.93,5.77-43.24-.33-1.63-.54-3.31-.82-5A114.88,114.88,0,0,0,203.14,73c1.5-.53,2.08,0,2.47,1.29,1.15,3.8,4.38,16.8,4.65,20.75a57.93,57.93,0,0,1-6.33,30.13c-2.23,4.49-4.21,9.1-6.32,13.65a22.46,22.46,0,0,1-2.24,4.08c-2.94,3.89-6.45,4.89-10.79,2.72A60.81,60.81,0,0,1,170.35,135.71Z"/><path class="cls-3" d="M14.4,141.59a23.11,23.11,0,0,1,1.93-5.68c4.2-7.6,9.17-14.57,16.39-19.65A9.58,9.58,0,0,1,35.36,115c1.35-.43,2.63-.38,3.29,1a2.79,2.79,0,0,1-1,3.74,60.74,60.74,0,0,0-7.4,6.59,49.27,49.27,0,0,0-9.54,14.38c-.35.77-.76,1.52-1.13,2.28-.62,1.23-1.48,2.11-3,1.81S14.69,143.06,14.4,141.59Z"/><path class="cls-4" d="M167.28,81.09a1.67,1.67,0,0,1-1-1.88,2.1,2.1,0,0,1,1.82-1.69,23.52,23.52,0,0,0,3.87-1.13C177.83,74,180.36,66.2,177,61a8.74,8.74,0,0,0-6-3.88,46.59,46.59,0,0,0-6-.68,50.64,50.64,0,0,1-18.94-4.92A8.87,8.87,0,0,1,145,51a2,2,0,0,1-1.16-1.88c.09-.88.74-1.29,1.52-1.58,1.12-.41,2.23-.85,3.33-1.3a13.5,13.5,0,0,0,5.24-3.78c4.87-5.74,9.89-11.38,15.86-16a34.46,34.46,0,0,1,21.12-7.56,37.15,37.15,0,0,1,18.57,4.85c1,.54,1.45.36,2-.55,1.71-2.92,2.17-6.23,3-9.43A89,89,0,0,0,216.23,2c.08-.74.17-1.47,1-1.82a1.82,1.82,0,0,1,2.11.59,13.52,13.52,0,0,1,2.26,2.75A34.23,34.23,0,0,1,226.14,15a10,10,0,0,1-2.89,5.43,40,40,0,0,0-4.59,6.05c-1.87,2.79-2.48,5.61-.6,8.69a11.32,11.32,0,0,1,1.55,4.52A50.6,50.6,0,0,1,219.23,55a54.78,54.78,0,0,1-5.45,15.23c-2.06,4-4.56,7.87-6.31,12.08-.46,1.09-.56,2.36-1.51,3.41-.18-.38-.29-.6-.39-.83-2.12-5.12-5.48-7-11-5.95-3.45.64-6.84,1.59-10.21,2.5-4.84,1.31-9.53.79-14.29.08C169.16,81.38,168.32,80.54,167.28,81.09Zm6.08-48.75a1.87,1.87,0,0,0-1.69.47c-2.17,1.83-4.36,3.64-6.52,5.49a7.48,7.48,0,0,0-1.88,2,1.75,1.75,0,0,0,.39,2.36,1.65,1.65,0,0,0,2.27,0c.49-.36.88-.87,1.34-1.27,2.24-1.92,4.47-3.84,6.73-5.71a2.16,2.16,0,0,0,.78-2.35A1.44,1.44,0,0,0,173.36,32.34Z"/><path class="cls-5" d="M167.28,81.09c1-.55,1.88.29,2.82.42,4.76.71,9.45,1.23,14.29-.08,3.37-.91,6.76-1.86,10.21-2.5,5.49-1,8.85.83,11,5.95.1.23.21.45.39.83.95-1,1-2.32,1.51-3.41,1.75-4.21,4.25-8,6.31-12.08A54.78,54.78,0,0,0,219.23,55a50.6,50.6,0,0,0,.38-15.34,11.32,11.32,0,0,0-1.55-4.52c-1.88-3.08-1.27-5.9.6-8.69a40,40,0,0,1,4.59-6.05A10,10,0,0,0,226.14,15a32.93,32.93,0,0,1,.75,4.74,4.59,4.59,0,0,1-1.55,3.88,33.31,33.31,0,0,0-5.2,6.55,2.66,2.66,0,0,0,.25,3.36,39.79,39.79,0,0,1,8.32,28.79c-.65,7.47-3.53,14.11-7.23,20.46S216,96,215,103.14c-.13.88.13,2.17-.93,2.44s-1.81-.8-2.45-1.6c-2.49-3.08-3.73-6.77-5.06-10.43-.92-2.52-1.92-5-2.84-7.55a2,2,0,0,0-2.55-1.38,66.36,66.36,0,0,1-13.4,1.49c-6.41,0-12.73-.55-18.5-3.75A6.78,6.78,0,0,1,167.28,81.09Z"/><path class="cls-6" d="M173.36,32.34a1.44,1.44,0,0,1,1.42,1,2.16,2.16,0,0,1-.78,2.35c-2.26,1.87-4.49,3.79-6.73,5.71-.46.4-.85.91-1.34,1.27a1.65,1.65,0,0,1-2.27,0,1.75,1.75,0,0,1-.39-2.36,7.48,7.48,0,0,1,1.88-2c2.16-1.85,4.35-3.66,6.52-5.49A1.87,1.87,0,0,1,173.36,32.34Z"/><path class="cls-7" d="M112.45,190.68c2.18-.14,4.13.92,6.25,1.2,9.66,1.28,17.69-1.54,25.6-6.75,7.41-4.89,14.38-11,19.28-18.41a40.88,40.88,0,0,0,6.68-18.19,54.35,54.35,0,0,0-.46-13.06c-.08-.57-.24-1.29-.26-1.86.77.84,2,2.31,2.68,3a60,60,0,0,1,3.8,4.76c5.35,7.05,8.07,15.62,6.41,24.52-1.29,7-5.09,13-9.39,18.52-6.45,8.26-14.44,17.85-24.45,21.76-11.81,4.63-20.43,1.11-29.93-8A62.74,62.74,0,0,1,112.45,190.68Z"/><path class="cls-8" d="M169.91,135.4c-.08-.56-.35-1.22-.37-1.79-2-2.4-4-4.86-6.08-7.18-10-11-19.89-22.09-30.49-32.52-5.92-5.83-10.93-11-19.24-12.18a36.26,36.26,0,0,0-24.28,5.56c-6.3,4.06-11.83,9.29-14.14,16.79-3,9.79.69,20.86,4.45,29.79,5.67,13.5,10.74,21.58,21.82,39.87,3.4,5.62,7,11.59,10.87,16.94,2.18-.14,2.44,2.21,4.56,2.49,8.31,1.1,17.32,0,24.15-4.69,3.3-2.27,13.63-9.55,15.39-11.42a91.65,91.65,0,0,0,7.62-9.72c3.42-4.79,4.54-10.37,5.66-16A47.43,47.43,0,0,0,169.91,135.4Zm-16.62,27.84c-.53,5.95-7.58,9.43-12.53,8.36-6.24-1.34-13.47-11.54-19.29-20.29-6.27-9.42-9.83-14.16-15.66-25.21-2-3.72-4.09-7.91-3.12-12.18a6.24,6.24,0,0,1,6.44-5c5.59.09,12.32,8.12,15.9,12.42,9.36,11.27,13.41,15.74,22.14,28.12C148.45,151.24,153.76,158,153.29,163.24Z"/><ellipse class="cls-9" cx="82.65" cy="114.14" rx="3.03" ry="3.08" transform="translate(-49.45 163.22) rotate(-74.47)"/><ellipse class="cls-9" cx="82.66" cy="114.11" rx="3.03" ry="3.08" transform="translate(-49.42 163.2) rotate(-74.47)"/><ellipse class="cls-9" cx="82.67" cy="114.03" rx="3.03" ry="3.08" transform="translate(-49.32 163.16) rotate(-74.47)"/><ellipse class="cls-9" cx="82.7" cy="113.89" rx="3.03" ry="3.08" transform="translate(-49.17 163.08) rotate(-74.47)"/><ellipse class="cls-9" cx="82.73" cy="113.69" rx="3.03" ry="3.08" transform="translate(-48.96 162.97) rotate(-74.47)"/><ellipse class="cls-9" cx="82.78" cy="113.45" rx="3.03" ry="3.08" transform="translate(-48.69 162.84) rotate(-74.47)"/><ellipse class="cls-9" cx="82.84" cy="113.16" rx="3.03" ry="3.08" transform="translate(-48.37 162.69) rotate(-74.47)"/><ellipse class="cls-9" cx="82.92" cy="112.83" rx="3.03" ry="3.08" transform="translate(-47.99 162.51) rotate(-74.47)"/><ellipse class="cls-9" cx="83.01" cy="112.45" rx="3.03" ry="3.08" transform="translate(-47.56 162.32) rotate(-74.47)"/><ellipse class="cls-9" cx="83.11" cy="112.04" rx="3.03" ry="3.08" transform="translate(-47.09 162.12) rotate(-74.47)"/><ellipse class="cls-9" cx="83.23" cy="111.59" rx="3.03" ry="3.08" transform="translate(-46.57 161.9) rotate(-74.47)"/><ellipse class="cls-9" cx="83.36" cy="111.1" rx="3.03" ry="3.08" transform="matrix(0.27, -0.96, 0.96, 0.27, -46, 161.68)"/><ellipse class="cls-9" cx="83.51" cy="110.58" rx="3.03" ry="3.08" transform="translate(-45.39 161.44) rotate(-74.47)"/><ellipse class="cls-9" cx="83.68" cy="110.03" rx="3.03" ry="3.08" transform="translate(-44.74 161.2) rotate(-74.47)"/><ellipse class="cls-9" cx="83.86" cy="109.46" rx="3.03" ry="3.08" transform="translate(-44.05 160.96) rotate(-74.47)"/><ellipse class="cls-9" cx="84.07" cy="108.86" rx="3.03" ry="3.08" transform="translate(-43.32 160.72) rotate(-74.47)"/><ellipse class="cls-9" cx="84.29" cy="108.24" rx="3.03" ry="3.08" transform="translate(-42.56 160.48) rotate(-74.47)"/><ellipse class="cls-9" cx="84.54" cy="107.6" rx="3.03" ry="3.08" transform="translate(-41.77 160.24) rotate(-74.47)"/><ellipse class="cls-9" cx="84.8" cy="106.94" rx="3.03" ry="3.08" transform="translate(-40.94 160.02) rotate(-74.47)"/><ellipse class="cls-9" cx="85.09" cy="106.27" rx="3.03" ry="3.08" transform="matrix(0.27, -0.96, 0.96, 0.27, -40.08, 159.8)"/><ellipse class="cls-9" cx="85.39" cy="105.58" rx="3.03" ry="3.08" transform="translate(-39.2 159.59) rotate(-74.47)"/><ellipse class="cls-9" cx="85.72" cy="104.89" rx="3.03" ry="3.08" transform="translate(-38.29 159.41) rotate(-74.47)"/><ellipse class="cls-9" cx="86.08" cy="104.19" rx="3.03" ry="3.08" transform="translate(-37.35 159.23) rotate(-74.47)"/><ellipse class="cls-9" cx="86.45" cy="103.49" rx="3.03" ry="3.08" transform="translate(-36.4 159.08) rotate(-74.47)"/><ellipse class="cls-9" cx="86.86" cy="102.78" rx="3.03" ry="3.08" transform="matrix(0.27, -0.96, 0.96, 0.27, -35.42, 158.95)"/><ellipse class="cls-9" cx="87.28" cy="102.07" rx="3.03" ry="3.08" transform="translate(-34.43 158.85) rotate(-74.47)"/><ellipse class="cls-9" cx="87.74" cy="101.37" rx="3.03" ry="3.08" transform="translate(-33.42 158.77) rotate(-74.47)"/><ellipse class="cls-9" cx="88.22" cy="100.67" rx="3.03" ry="3.08" transform="translate(-32.4 158.72) rotate(-74.47)"/><ellipse class="cls-9" cx="88.73" cy="99.98" rx="3.03" ry="3.08" transform="translate(-31.36 158.7) rotate(-74.47)"/><ellipse class="cls-9" cx="89.26" cy="99.3" rx="3.03" ry="3.08" transform="translate(-30.31 158.72) rotate(-74.47)"/><ellipse class="cls-9" cx="89.82" cy="98.64" rx="3.03" ry="3.08" transform="translate(-29.26 158.78) rotate(-74.47)"/><ellipse class="cls-9" cx="90.42" cy="97.99" rx="3.03" ry="3.08" transform="translate(-28.2 158.87) rotate(-74.47)"/><ellipse class="cls-9" cx="91.04" cy="97.35" rx="3.03" ry="3.08" transform="translate(-27.13 159.01) rotate(-74.47)"/><ellipse class="cls-9" cx="91.7" cy="96.74" rx="3.03" ry="3.08" transform="translate(-26.06 159.19) rotate(-74.47)"/><ellipse class="cls-9" cx="92.38" cy="96.15" rx="3.03" ry="3.08" transform="translate(-24.99 159.42) rotate(-74.47)"/><ellipse class="cls-9" cx="93.1" cy="95.59" rx="3.03" ry="3.08" transform="translate(-23.92 159.7) rotate(-74.47)"/><ellipse class="cls-9" cx="93.85" cy="95.05" rx="3.03" ry="3.08" transform="translate(-22.86 160.03) rotate(-74.47)"/><ellipse class="cls-9" cx="94.63" cy="94.55" rx="3.03" ry="3.08" transform="translate(-21.8 160.42) rotate(-74.47)"/><ellipse class="cls-9" cx="95.45" cy="94.08" rx="3.03" ry="3.08" transform="translate(-20.74 160.86) rotate(-74.47)"/><ellipse class="cls-9" cx="96.31" cy="93.64" rx="3.03" ry="3.08" transform="translate(-19.7 161.36) rotate(-74.47)"/><path class="cls-3" d="M132.93,71.22c.11,1.48-1,2.18-1.94,3s-1.63,1.71-1.08,3.29a2.22,2.22,0,0,1-1.23,3.07,2.4,2.4,0,0,1-3.23-.91,5.78,5.78,0,0,1,.4-7.69,14.51,14.51,0,0,1,3.23-2.88A2.48,2.48,0,0,1,132.93,71.22Z"/></g></g></svg>