<svg xmlns="http://www.w3.org/2000/svg" viewBox="0 0 111.31 94.35"><defs><style>.cls-1{fill:#282241;}.cls-2{fill:#8989f5;}</style></defs><g id="레이어_2" data-name="레이어 2"><g id="레이어_1-2" data-name="레이어 1"><path class="cls-1" d="M64.09,40.93A3.67,3.67,0,0,1,60.7,37a3,3,0,0,1,1.6-2.84c9.49-4.5,16.77-11.9,17.57-21.57.06-.74-.13-1.3-1.11-1.3H64.39c-1.66,0-3.14-.92-3.14-3.51S62.73,4,64.39,4H81.9c4.75,0,6.29,3.2,6.11,6.9-.93,16.65-13,25.89-20.47,29.16A7.66,7.66,0,0,1,64.09,40.93ZM95.9,3.08C95.9,1.23,97.13,0,99.6,0s3.69,1.23,3.69,3.08V17.75h4.87c1.92,0,3.15,1.05,3.15,3.58s-1.23,3.58-3.15,3.58h-4.87V43.12c0,1.85-1.23,3.08-3.69,3.08S95.9,45,95.9,43.12Z"/><path class="cls-1" d="M60.89,58.14c-1.65,0-3.11-1.1-3.11-3.48,0-2.62,1.46-3.72,3.11-3.72H85.37c1.65,0,3.18,1,3.18,3.72,0,2.44-1.53,3.48-3.18,3.48H77.56A40.29,40.29,0,0,1,63.88,86.29a5.06,5.06,0,0,1-3.48,1.22,3.51,3.51,0,0,1-3.48-3.61,3.26,3.26,0,0,1,1.16-2.62c6.84-5.68,10.81-13.13,11.73-23.14ZM70,66.8A4,4,0,0,1,74,62.65a3.51,3.51,0,0,1,2.5,1C79.69,66.74,88.18,77.07,90,80.85a6.57,6.57,0,0,1,.86,2.81c0,2.75-2.57,3.85-4.46,3.85a3.06,3.06,0,0,1-2.87-1.59C81,81.77,74.38,73.09,70.71,68.63A3.5,3.5,0,0,1,70,66.8ZM96,50.93c0-1.83,1.22-3,3.66-3s3.66,1.22,3.66,3V91.3c0,1.83-1.22,3-3.66,3S96,93.13,96,91.3Z"/><path class="cls-2" d="M3.39,42.54A3.69,3.69,0,0,1,0,38.6a3,3,0,0,1,1.6-2.84c9.5-4.5,18-13.82,18.85-23.49.06-.74-.12-1.3-1.11-1.3H3.7C2,11,.55,10.05.55,7.46S2,3.7,3.7,3.7H22.48c4.75,0,6.29,3.2,6.11,6.9C27.66,27.25,14.36,38.41,6.84,41.68A7.79,7.79,0,0,1,3.39,42.54ZM36.48,3.09c0-1.85,1.23-3.09,3.7-3.09s3.7,1.24,3.7,3.09V19.36h4.87c1.91,0,3.14,1.05,3.14,3.58s-1.23,3.57-3.14,3.57H43.88V41.75c0,1.85-1.24,3.09-3.7,3.09s-3.7-1.24-3.7-3.09Z"/><path class="cls-2" d="M10.26,58c-1.66,0-3.14-1.11-3.14-3.52,0-2.65,1.48-3.76,3.14-3.76H41.34c1.66,0,3.2,1.05,3.2,3.76C44.54,57,43,58,41.34,58H30.27c-.74,12.57-9.44,22.66-16.22,28.33a5.1,5.1,0,0,1-3.52,1.24A3.54,3.54,0,0,1,7,84a3.27,3.27,0,0,1,1.17-2.65C15.09,75.59,21.51,68.15,22.44,58ZM22.12,65.8a4,4,0,0,1,3.95-4.19,3.51,3.51,0,0,1,2.52,1c3.27,3.14,13.18,14.64,15,18.46.56,1.24.87,1.58.87,2.5,0,2.78-2.59,3.89-4.5,3.89a3.09,3.09,0,0,1-2.9-1.6c-2.47-4.2-10.52-13.7-14.22-18.2A3.5,3.5,0,0,1,22.12,65.8Z"/></g></g></svg>