<svg xmlns="http://www.w3.org/2000/svg" viewBox="0 0 204.79 90"><defs><style>.cls-1{fill:#282241;}.cls-2{fill:#8989f5;}.cls-3{fill:#856bdb;}.cls-4{fill:#6e59cb;}.cls-5{fill:#d2caf0;}.cls-6{fill:#68e868;}.cls-7{fill:#59c559;}.cls-8{fill:#c3f4c3;}.cls-9{fill:#856bdc;}.cls-10{fill:#6e58cb;}.cls-11{fill:#e1d7ff;}</style></defs><g id="레이어_2" data-name="레이어 2"><g id="레이어_1-2" data-name="레이어 1"><path class="cls-1" d="M61.13,39.05a3.52,3.52,0,0,1-3.23-3.77,2.87,2.87,0,0,1,1.53-2.7c9.05-4.29,16-11.35,16.76-20.58,0-.71-.12-1.24-1.06-1.24H61.43c-1.59,0-3-.88-3-3.35s1.41-3.59,3-3.59h16.7c4.53,0,6,3.06,5.82,6.59-.88,15.88-12.35,24.7-19.53,27.81A7.33,7.33,0,0,1,61.13,39.05ZM91.48,2.94C91.48,1.18,92.65,0,95,0s3.53,1.18,3.53,2.94v14h4.65c1.82,0,3,1,3,3.41s-1.18,3.41-3,3.41H98.53V41.13c0,1.77-1.17,2.94-3.53,2.94s-3.52-1.17-3.52-2.94Z"/><path class="cls-1" d="M58.09,55.46c-1.58,0-3-1.05-3-3.32,0-2.5,1.39-3.55,3-3.55H81.44c1.57,0,3,1,3,3.55,0,2.33-1.46,3.32-3,3.32H74a38.45,38.45,0,0,1-13,26.85,4.85,4.85,0,0,1-3.32,1.16A3.34,3.34,0,0,1,54.3,80a3.09,3.09,0,0,1,1.11-2.51C61.93,72.12,65.71,65,66.59,55.46Zm8.72,8.26a3.81,3.81,0,0,1,3.73-4,3.35,3.35,0,0,1,2.39.93c3.08,3,11.19,12.82,12.88,16.44a6.27,6.27,0,0,1,.81,2.67c0,2.63-2.44,3.67-4.25,3.67A2.92,2.92,0,0,1,79.63,82C77.3,78,71,69.72,67.45,65.47A3.35,3.35,0,0,1,66.81,63.72ZM91.57,48.59c0-1.75,1.17-2.92,3.49-2.92s3.5,1.17,3.5,2.92v38.5c0,1.75-1.17,2.91-3.5,2.91s-3.49-1.16-3.49-2.91Z"/><path class="cls-2" d="M3.23,40.58A3.51,3.51,0,0,1,0,36.82a2.87,2.87,0,0,1,1.53-2.71c9.06-4.29,17.21-13.18,18-22.41.06-.71-.12-1.23-1.06-1.23H3.53c-1.59,0-3-.89-3-3.36s1.41-3.58,3-3.58H21.45c4.53,0,6,3.05,5.82,6.58C26.39,26,13.7,36.64,6.53,39.76A7.39,7.39,0,0,1,3.23,40.58ZM34.8,2.94C34.8,1.18,36,0,38.33,0s3.52,1.18,3.52,2.94V18.47H46.5c1.82,0,3,1,3,3.41s-1.18,3.41-3,3.41H41.85V39.83c0,1.76-1.17,2.94-3.52,2.94s-3.53-1.18-3.53-2.94Z"/><path class="cls-2" d="M9.79,55.36c-1.59,0-3-1.06-3-3.35,0-2.53,1.41-3.59,3-3.59H39.43c1.59,0,3.06,1,3.06,3.59,0,2.35-1.47,3.35-3.06,3.35H28.87c-.7,12-9,21.62-15.47,27a4.84,4.84,0,0,1-3.35,1.18A3.38,3.38,0,0,1,6.69,80.1a3.15,3.15,0,0,1,1.12-2.53C14.4,72.1,20.52,65,21.4,55.36ZM21.1,62.77a3.84,3.84,0,0,1,3.77-4,3.37,3.37,0,0,1,2.41.94c3.11,3,12.56,14,14.27,17.62.53,1.17.82,1.5.82,2.38,0,2.65-2.47,3.71-4.29,3.71a3,3,0,0,1-2.77-1.53c-2.35-4-10-13.06-13.56-17.36A3.28,3.28,0,0,1,21.1,62.77Z"/><path class="cls-3" d="M129,82.33a24.71,24.71,0,0,1-6.75-11.07,33.66,33.66,0,0,1-1.12-13.92A25.19,25.19,0,0,1,126.58,45a25.52,25.52,0,0,1,11.76-8.61,7.23,7.23,0,0,1,4.07-.17,4.45,4.45,0,0,1,2.41,1.47c4,4.64,6.38,10.13,8,16a.84.84,0,0,1-.38,1,10.51,10.51,0,0,1-3,1.42,1.19,1.19,0,0,1-1.41-.52c-1.37-1.86-2.71-3.73-4.2-5.5-2.71-3.24-7.44-2.26-9.22,1.43a8.16,8.16,0,0,0-.2,5.91,53,53,0,0,0,11,20.71,7,7,0,0,0,8.91,1.36,4.76,4.76,0,0,0,2-3.5A15.48,15.48,0,0,0,155,67.63a7.75,7.75,0,0,0-1.06-2.23,1,1,0,0,0-1.5-.29,17.08,17.08,0,0,0-2.73,2,1,1,0,0,1-1.5.07c-.5-.38-1-.71-1.53-1.07a.91.91,0,0,1-.28-1.41,32.63,32.63,0,0,1,5.13-5.82c2-1.65,3.27-1,4.68.35A30.46,30.46,0,0,1,159.83,64a39.94,39.94,0,0,1,3.7,6.36c-.22.15-.23.41-.28.62a16.26,16.26,0,0,1-6,9.11,18.34,18.34,0,0,1-6.6,3.24,28.67,28.67,0,0,1-7.81,1.22,30.68,30.68,0,0,1-12.57-2.17C129.91,82.27,129.46,81.94,129,82.33ZM126.17,51.9c.11.54.21,1,.81,1.15a1,1,0,0,0,1.09-.66c.14-.28.29-.55.42-.84a18.22,18.22,0,0,1,3.5-5.27,22.21,22.21,0,0,1,2.71-2.42,1,1,0,0,0,.36-1.37c-.24-.5-.71-.51-1.21-.36a3.48,3.48,0,0,0-1,.49,20.52,20.52,0,0,0-6,7.2A8.39,8.39,0,0,0,126.17,51.9Z"/><path class="cls-3" d="M184.19,50.51a162.08,162.08,0,0,1-13.19-13c-1.07-1.14-3-3.48-4-4.71A24.67,24.67,0,0,1,164,28.38c-.54-1.12-.67-2.15.31-3.06,4.08-3.82,8.69-7.57,14.32-8.71a11.52,11.52,0,0,1,8.21,1.07A9.64,9.64,0,0,1,191,23.32c.22.84.63,2.69,0,3.41s-2.75,3.92-3,3.23a8,8,0,0,0-3.39-4.27,7.51,7.51,0,0,0-6.89-.42c-1.37.49-2.85,1.14-2.37,2.1a23.28,23.28,0,0,0,3.77,5c1.78,1.9,3.61,3.34,5.55,5.09,1,.87,1.93,1.76,3,2.55.45.36,1.35,1.32,2,1.11.22-.07.31-.34.36-.57a13.3,13.3,0,0,0-.41-5.73c-.49-1.93-.91-2.93-1.57-4.86a5,5,0,0,1-.47-1.58c.06-.4,1.2-.3,1.44-.31a14.44,14.44,0,0,0,2.54-.3c.17.56,1.62,1.48,1.69,2.07,2.51,6,1.89,10.8-2.51,15.75-1.22,2-1.88,3.37-4.22,3.95A10.14,10.14,0,0,0,184.19,50.51ZM169.62,26.1a.91.91,0,0,0-1.34-.77,4.47,4.47,0,0,0-1.26,1,2.07,2.07,0,0,0-.16,2.77.85.85,0,0,0,1.16.34.82.82,0,0,0,.46-1.1,1,1,0,0,1,.41-1.18C169.28,26.84,169.6,26.76,169.62,26.1Z"/><path class="cls-4" d="M129,82.33c.42-.39.87-.06,1.22.08a30.68,30.68,0,0,0,12.57,2.17,28.67,28.67,0,0,0,7.81-1.22,18.34,18.34,0,0,0,6.6-3.24,16.26,16.26,0,0,0,6-9.11c.05-.21.06-.47.28-.62A45.25,45.25,0,0,1,167,79,4.37,4.37,0,0,1,165,83.79c-5.61,3.92-11.67,6.59-18.72,6.17A26,26,0,0,1,129,82.33Z"/><path class="cls-4" d="M183.34,49.74c.29-.3.68-.13,1-.19,2.36-.44,3.77-2.14,4.82-4,3.14-4,3.38-9.5,2.11-15.85-.12-.6-.19-1.21-.3-1.82a40.21,40.21,0,0,0,4.35-1.12c.55-.2.77,0,.91.47a62.19,62.19,0,0,1,1.7,7.6,21.2,21.2,0,0,1-2.32,11.05c-.81,1.64-1.54,3.33-2.31,5a7.84,7.84,0,0,1-.83,1.5,2.85,2.85,0,0,1-3.95,1A21.85,21.85,0,0,1,183.34,49.74Z"/><path class="cls-5" d="M126.17,51.9a8.39,8.39,0,0,1,.71-2.08,20.52,20.52,0,0,1,6-7.2,3.48,3.48,0,0,1,1-.49c.5-.15,1-.14,1.21.36a1,1,0,0,1-.36,1.37A22.21,22.21,0,0,0,132,46.28a18.22,18.22,0,0,0-3.5,5.27c-.13.29-.28.56-.42.84a1,1,0,0,1-1.09.66C126.38,52.93,126.28,52.44,126.17,51.9Z"/><path class="cls-6" d="M182.21,29.72a.6.6,0,0,1-.38-.69.76.76,0,0,1,.67-.61,8.89,8.89,0,0,0,1.42-.42,4,4,0,0,0,1.84-5.62A3.22,3.22,0,0,0,183.58,21a18.23,18.23,0,0,0-2.21-.25,18.67,18.67,0,0,1-7-1.8,3,3,0,0,1-.39-.22.73.73,0,0,1-.43-.69c0-.32.27-.47.56-.58s.82-.31,1.22-.48a4.87,4.87,0,0,0,1.92-1.38,39.19,39.19,0,0,1,5.81-5.85,12.68,12.68,0,0,1,7.75-2.77,13.57,13.57,0,0,1,6.8,1.78c.36.2.53.13.73-.2a12.68,12.68,0,0,0,1.09-3.46,33,33,0,0,0,.67-4.33c0-.27.06-.54.35-.67a.68.68,0,0,1,.77.22,5,5,0,0,1,.83,1,12.55,12.55,0,0,1,1.68,4.2,3.6,3.6,0,0,1-1.06,2A15.23,15.23,0,0,0,201,9.69a2.74,2.74,0,0,0-.22,3.19,4,4,0,0,1,.57,1.65,18.66,18.66,0,0,1-.14,5.63,19.81,19.81,0,0,1-2,5.58c-.75,1.48-1.67,2.88-2.31,4.43a3.92,3.92,0,0,1-.55,1.25,2.39,2.39,0,0,1-.14-.31,3.21,3.21,0,0,0-4-2.18c-1.26.24-2.51.58-3.74.92a12.51,12.51,0,0,1-5.24,0C182.9,29.83,182.59,29.52,182.21,29.72Zm2.23-17.87a.68.68,0,0,0-.62.18c-.8.67-1.6,1.33-2.39,2a2.86,2.86,0,0,0-.69.74.65.65,0,0,0,.14.87.59.59,0,0,0,.83,0c.18-.13.32-.32.5-.47.81-.7,1.63-1.4,2.46-2.09a.79.79,0,0,0,.29-.86A.54.54,0,0,0,184.44,11.85Z"/><path class="cls-7" d="M182.21,29.72c.38-.2.69.11,1,.16a12.51,12.51,0,0,0,5.24,0c1.23-.34,2.48-.68,3.74-.92a3.21,3.21,0,0,1,4,2.18,2.39,2.39,0,0,0,.14.31,3.92,3.92,0,0,0,.55-1.25c.64-1.55,1.56-3,2.31-4.43a19.81,19.81,0,0,0,2-5.58,18.66,18.66,0,0,0,.14-5.63,4,4,0,0,0-.57-1.65A2.74,2.74,0,0,1,201,9.69a15.23,15.23,0,0,1,1.68-2.22,3.6,3.6,0,0,0,1.06-2,12.86,12.86,0,0,1,.28,1.74,1.7,1.7,0,0,1-.57,1.42,12.54,12.54,0,0,0-1.9,2.4,1,1,0,0,0,.09,1.23,14.58,14.58,0,0,1,3,10.56,17.89,17.89,0,0,1-2.64,7.5,20.21,20.21,0,0,0-2.4,7.48c0,.32,0,.79-.34.89s-.66-.29-.9-.58a13.05,13.05,0,0,1-1.85-3.83c-.34-.92-.71-1.84-1-2.77a.72.72,0,0,0-.94-.5,23.82,23.82,0,0,1-4.91.54,13.69,13.69,0,0,1-6.78-1.37A2.44,2.44,0,0,1,182.21,29.72Z"/><path class="cls-8" d="M184.44,11.85a.54.54,0,0,1,.52.39.79.79,0,0,1-.29.86c-.83.69-1.65,1.39-2.46,2.09-.18.15-.32.34-.5.47a.59.59,0,0,1-.83,0,.65.65,0,0,1-.14-.87,2.86,2.86,0,0,1,.69-.74c.79-.68,1.59-1.34,2.39-2A.68.68,0,0,1,184.44,11.85Z"/><path class="cls-9" d="M162.11,69.89c-1.41-2-2.74-4.15-4-6.2-4.06-6.71-5.92-9.67-8-14.62-1.38-3.27-2.74-7.33-1.63-10.92A11.46,11.46,0,0,1,153.68,32a13.25,13.25,0,0,1,8.9-2c3,.44,4.88,2.33,7,4.46,3.89,3.83,7.52,7.89,11.18,11.92.77.85,1.48,1.76,2.23,2.63,0,.21.1.46.13.66a17.21,17.21,0,0,1,0,5.86,14.61,14.61,0,0,1-2.07,5.85,34.73,34.73,0,0,1-2.79,3.56c-.65.69-4.44,3.36-5.64,4.19a12.84,12.84,0,0,1-8.86,1.72C163,70.7,162.91,69.84,162.11,69.89Zm-1.22-30a2.29,2.29,0,0,0-2.36,1.85c-.35,1.56.43,3.1,1.15,4.46a85.57,85.57,0,0,0,5.74,9.24c2.13,3.21,4.78,6.95,7.07,7.44,1.81.39,4.39-.88,4.59-3.06.17-1.91-1.77-4.4-2.24-5.06a130.38,130.38,0,0,0-8.12-10.31C165.41,42.89,162.94,39.94,160.89,39.91Zm-3.8-4.31a1.12,1.12,0,0,0-.52-.82.9.9,0,0,0-1,.07A39.43,39.43,0,0,1,151,37.73a.86.86,0,0,0-.44,1.08.92.92,0,0,0,.94.69,2.07,2.07,0,0,0,.74-.24,35.29,35.29,0,0,0,4.41-2.85A1.16,1.16,0,0,0,157.09,35.6Z"/><path class="cls-10" d="M162.11,69.89a12,12,0,0,1,2.29.44,13.21,13.21,0,0,0,9.39-2.47,24.43,24.43,0,0,0,7.06-6.75,15,15,0,0,0,2.45-6.67,19.6,19.6,0,0,0-.17-4.78c0-.21-.08-.48-.09-.69.28.31.74.85,1,1.1a21.19,21.19,0,0,1,1.39,1.74,11.33,11.33,0,0,1,2.35,9,16,16,0,0,1-3.44,6.79c-2.36,3-5.29,6.54-9,8-4.33,1.69-7.49.4-11-2.93A21.47,21.47,0,0,1,162.11,69.89Z"/><path class="cls-9" d="M153.48,34.36l-4,4.12.07,3.59,4.07-.59,4.48-3.68s1.23-3.51.69-3.54S153.48,34.36,153.48,34.36Z"/><ellipse class="cls-11" cx="151.19" cy="41.84" rx="1.11" ry="1.13" transform="translate(70.4 176.31) rotate(-74.47)"/><ellipse class="cls-11" cx="151.19" cy="41.83" rx="1.11" ry="1.13" transform="translate(70.41 176.3) rotate(-74.47)"/><ellipse class="cls-11" cx="151.2" cy="41.8" rx="1.11" ry="1.13" transform="translate(70.45 176.28) rotate(-74.47)"/><ellipse class="cls-11" cx="151.21" cy="41.74" rx="1.11" ry="1.13" transform="translate(70.51 176.26) rotate(-74.47)"/><ellipse class="cls-11" cx="151.22" cy="41.67" rx="1.11" ry="1.13" transform="translate(70.58 176.22) rotate(-74.47)"/><ellipse class="cls-11" cx="151.24" cy="41.59" rx="1.11" ry="1.13" transform="translate(70.68 176.17) rotate(-74.47)"/><ellipse class="cls-11" cx="151.26" cy="41.48" rx="1.11" ry="1.13" transform="translate(70.8 176.11) rotate(-74.47)"/><ellipse class="cls-11" cx="151.29" cy="41.36" rx="1.11" ry="1.13" transform="translate(70.94 176.05) rotate(-74.47)"/><ellipse class="cls-11" cx="151.32" cy="41.22" rx="1.11" ry="1.13" transform="translate(71.09 175.98) rotate(-74.47)"/><ellipse class="cls-11" cx="151.36" cy="41.07" rx="1.11" ry="1.13" transform="translate(71.27 175.9) rotate(-74.47)"/><ellipse class="cls-11" cx="151.4" cy="40.9" rx="1.11" ry="1.13" transform="translate(71.46 175.82) rotate(-74.47)"/><ellipse class="cls-11" cx="151.45" cy="40.72" rx="1.11" ry="1.13" transform="translate(71.67 175.74) rotate(-74.47)"/><ellipse class="cls-11" cx="151.5" cy="40.53" rx="1.11" ry="1.13" transform="matrix(0.27, -0.96, 0.96, 0.27, 71.89, 175.66)"/><ellipse class="cls-11" cx="151.56" cy="40.33" rx="1.11" ry="1.13" transform="translate(72.13 175.57) rotate(-74.47)"/><ellipse class="cls-11" cx="151.63" cy="40.12" rx="1.11" ry="1.13" transform="matrix(0.27, -0.96, 0.96, 0.27, 72.38, 175.48)"/><ellipse class="cls-11" cx="151.71" cy="39.9" rx="1.11" ry="1.13" transform="translate(72.65 175.39) rotate(-74.47)"/><ellipse class="cls-11" cx="151.79" cy="39.67" rx="1.11" ry="1.13" transform="translate(72.93 175.3) rotate(-74.47)"/><ellipse class="cls-11" cx="151.88" cy="39.44" rx="1.11" ry="1.13" transform="translate(73.22 175.22) rotate(-74.47)"/><ellipse class="cls-11" cx="151.98" cy="39.2" rx="1.11" ry="1.13" transform="translate(73.52 175.13) rotate(-74.47)"/><ellipse class="cls-11" cx="152.08" cy="38.95" rx="1.11" ry="1.13" transform="translate(73.84 175.05) rotate(-74.47)"/><ellipse class="cls-11" cx="152.19" cy="38.7" rx="1.11" ry="1.13" transform="translate(74.16 174.98) rotate(-74.47)"/><ellipse class="cls-11" cx="152.31" cy="38.45" rx="1.11" ry="1.13" transform="translate(74.49 174.91) rotate(-74.47)"/><ellipse class="cls-11" cx="152.44" cy="38.19" rx="1.11" ry="1.13" transform="translate(74.84 174.85) rotate(-74.47)"/><ellipse class="cls-11" cx="152.58" cy="37.93" rx="1.11" ry="1.13" transform="translate(75.19 174.79) rotate(-74.47)"/><ellipse class="cls-11" cx="152.73" cy="37.67" rx="1.11" ry="1.13" transform="translate(75.54 174.74) rotate(-74.47)"/><ellipse class="cls-11" cx="152.89" cy="37.41" rx="1.11" ry="1.13" transform="translate(75.91 174.7) rotate(-74.47)"/><ellipse class="cls-11" cx="153.05" cy="37.16" rx="1.11" ry="1.13" transform="translate(76.28 174.68) rotate(-74.47)"/><ellipse class="cls-11" cx="153.23" cy="36.9" rx="1.11" ry="1.13" transform="translate(76.65 174.66) rotate(-74.47)"/><ellipse class="cls-11" cx="153.41" cy="36.65" rx="1.11" ry="1.13" transform="matrix(0.27, -0.96, 0.96, 0.27, 77.03, 174.65)"/><ellipse class="cls-11" cx="153.61" cy="36.4" rx="1.11" ry="1.13" transform="translate(77.42 174.66) rotate(-74.47)"/><ellipse class="cls-11" cx="153.82" cy="36.16" rx="1.11" ry="1.13" transform="translate(77.8 174.68) rotate(-74.47)"/><ellipse class="cls-11" cx="154.03" cy="35.92" rx="1.11" ry="1.13" transform="translate(78.19 174.71) rotate(-74.47)"/><ellipse class="cls-11" cx="154.26" cy="35.68" rx="1.11" ry="1.13" transform="translate(78.58 174.77) rotate(-74.47)"/><ellipse class="cls-11" cx="154.5" cy="35.46" rx="1.11" ry="1.13" transform="translate(78.98 174.83) rotate(-74.47)"/><ellipse class="cls-11" cx="154.75" cy="35.24" rx="1.11" ry="1.13" transform="translate(79.37 174.92) rotate(-74.47)"/><ellipse class="cls-11" cx="155.02" cy="35.04" rx="1.11" ry="1.13" transform="translate(79.76 175.02) rotate(-74.47)"/><ellipse class="cls-11" cx="155.29" cy="34.84" rx="1.11" ry="1.13" transform="translate(80.15 175.14) rotate(-74.47)"/><ellipse class="cls-11" cx="155.58" cy="34.66" rx="1.11" ry="1.13" transform="translate(80.54 175.28) rotate(-74.47)"/><ellipse class="cls-11" cx="155.88" cy="34.48" rx="1.11" ry="1.13" transform="translate(80.92 175.44) rotate(-74.47)"/><ellipse class="cls-11" cx="156.19" cy="34.32" rx="1.11" ry="1.13" transform="translate(81.31 175.63) rotate(-74.47)"/><path class="cls-5" d="M169.62,26.11c0,.54-.38.79-.71,1.08a1,1,0,0,0-.4,1.21.81.81,0,0,1-.45,1.12.88.88,0,0,1-1.19-.33,2.13,2.13,0,0,1,.15-2.82,5.23,5.23,0,0,1,1.19-1.06A.91.91,0,0,1,169.62,26.11Z"/></g></g></svg>